<?xml version="1.0" standalone="no"?><!DOCTYPE svg PUBLIC "-//W3C//DTD SVG 1.1//EN" "http://www.w3.org/Graphics/SVG/1.1/DTD/svg11.dtd"><svg t="1726192451393" class="icon" viewBox="0 0 1024 1024" version="1.1" xmlns="http://www.w3.org/2000/svg" p-id="4439" xmlns:xlink="http://www.w3.org/1999/xlink" width="200" height="200"><path d="M204.288 63.488c-8.704 8.192-16.896 20.48-18.944 26.624-3.584 11.776 12.8 62.464 20.48 62.464S235.52 176.128 235.52 184.32c0 16.384-17.92 26.112-47.104 26.112-34.816 0-104.448 27.648-128.512 51.2-9.216 8.704-26.112 33.792-37.888 56.32L0 358.4v469.504l21.504 40.448c24.576 47.616 35.84 59.392 82.944 84.992l40.96 22.528h722.944l40.96-19.968c51.712-24.576 72.704-45.056 95.744-94.72l17.92-38.4v-231.424l0.512-231.424-17.92-36.352c-9.216-20.48-28.16-47.104-42.496-59.904-31.232-30.208-86.528-54.272-122.368-54.272-54.272 0-65.024-22.528-26.624-57.856 20.48-18.432 23.04-25.088 23.04-45.568 0-19.968-3.584-28.16-16.896-41.984-9.216-9.216-22.528-16.896-29.696-16.896-11.776 0-34.304 9.216-40.448 16.896-1.536 1.536-35.84 35.328-75.776 74.24l-73.216 71.168-83.456-0.512c-45.568 0-88.064-2.56-93.696-4.608-5.632-2.56-38.4-31.232-72.704-65.024C249.856 40.448 235.008 32.256 204.288 63.488z m652.8 262.656c5.12 0.512 19.968 9.216 31.744 20.48l21.504 19.968 1.536 217.088c1.024 197.12 0.512 218.112-8.704 236.032-14.336 27.136-34.816 40.448-65.536 41.984-14.336 0.512-173.568 0.512-353.28 0l-326.144-1.536-45.056-45.056V373.248l20.992-22.528c15.872-17.92 25.6-23.552 41.984-25.088 16.384-1.024 634.88-0.512 680.96 0.512z" fill="#1296db" p-id="4440"></path><path d="M279.04 502.272c-20.48 22.016-20.992 25.088-20.992 66.56 0 39.936 1.024 44.544 17.92 64 29.184 33.28 55.808 32.256 84.48-2.56 11.264-12.8 12.8-22.016 13.312-64 0-47.104-0.512-48.64-19.968-68.096-27.136-27.648-47.616-26.112-74.752 4.096z m393.216-3.584c-18.944 18.944-19.968 20.992-19.968 69.12 0 47.616 0.512 49.664 18.432 67.072 24.576 23.552 35.84 26.624 58.368 13.824 29.184-16.896 39.936-43.52 36.864-90.624-2.56-35.328-4.608-41.984-22.016-59.904-25.088-25.6-45.568-25.6-71.68 0.512z" fill="#1296db" p-id="4441"></path></svg>