<?xml version="1.0" standalone="no"?><!DOCTYPE svg PUBLIC "-//W3C//DTD SVG 1.1//EN" "http://www.w3.org/Graphics/SVG/1.1/DTD/svg11.dtd"><svg t="1726192517765" class="icon" viewBox="0 0 1024 1024" version="1.1" xmlns="http://www.w3.org/2000/svg" p-id="7411" xmlns:xlink="http://www.w3.org/1999/xlink" width="200" height="200"><path d="M676.325 381.17h5.098c-25.972-114.081-144.421-200.37-286.538-200.37-161.17 0-291.877 110.804-291.877 247.581 0 79.493 44.176 150.247 112.867 195.516l-28.884 85.925 101.702-50.486-1.942-0.971c33.497 11.286 69.905 17.598 108.134 17.598 8.617 0 17.234-0.364 25.729-0.971-7.646-21.117-11.893-43.691-11.893-66.992 0-125.125 119.786-226.828 267.605-226.828zM489.184 319.276c21.482 0 38.836 15.292 38.836 34.102 0 14.563-10.437 27.065-25.122 31.918-4.247 1.456-8.86 2.185-13.714 2.185-21.482 0-38.836-15.292-38.836-34.102s17.476-34.102 38.836-34.102zM315.634 385.419c-4.247 1.456-8.86 2.185-13.714 2.185-21.482 0-38.836-15.292-38.836-34.102s17.355-34.102 38.836-34.102 38.836 15.292 38.836 34.102c0 14.563-10.437 27.065-25.122 31.918z" fill="" p-id="7412"></path><path d="M922.45 608.241c0-115.295-110.197-208.865-246.124-208.865s-246.124 93.45-246.124 208.865 110.197 208.865 246.124 208.865c30.462 0 59.711-4.733 86.774-13.349l78.279 42.962-21.117-69.177c61.895-37.866 102.188-99.638 102.188-169.301zM610.546 570.254c-3.519 1.214-7.404 1.821-11.408 1.821-17.962 0-32.526-12.865-32.526-28.641s14.563-28.641 32.526-28.641 32.526 12.865 32.526 28.641c0 12.257-8.738 22.695-21.117 26.821zM769.897 570.254c-3.519 1.214-7.404 1.821-11.408 1.821-17.962 0-32.526-12.865-32.526-28.641s14.563-28.641 32.526-28.641 32.526 12.865 32.526 28.641c0 12.257-8.738 22.695-21.117 26.821z" fill="" p-id="7413"></path></svg>